<svg xmlns="http://www.w3.org/2000/svg" viewBox="0 0 300 300"><defs><style>.a{fill:#ff7979;}.a,.b,.c{fill-rule:evenodd;}.c,.d{fill:#fff;}</style></defs><title>Chillax</title><path class="a" d="M144.976,243.214c23.1-5.37,41.459-24.761,55.4-43.046,14.619,1.271,29.171-.883,43.753.188,3.472.257,15.123,1.681,10.01,7.274-8.986,9.833-30.525,5.935-39.376,9.964-.2.092-.6.111-.575.33.4,3.987,13.449,5.887,5.447,9.975a17.673,17.673,0,0,1-3.365,1.194c-9.346,2.583-21.291,1.347-31.947,3.727-.265.057-6,1.543-5.706,2.153,1.462,3.044,8.341,3.777,11.2,4.825.421.153,3.952,1.239,3.927,1.98-.107,3.182-9.99,3.608-12.164,3.57-11.99-.192-24.575.291-36.447-1.689"/><path class="a" d="M31.81,193.865c-16.921-1.761-19.021,14.106-2.269,17.007a53.153,53.153,0,0,1,3.513-19.194"/><path class="a" d="M80.51,208.838c15.879-2.149,13.965,4.635,18.431,10.678,7.772,10.524,18.3,23.908,32.007,25.781-7.581,5-17.718,3.631-26.3,3.554-3.12-.026-9.227-1.036-11.9,1.048-1.175.921,2.445,2.8,2.959,3,2.338.9,14.2,2.663,9.12,7.6-3.731,3.627-11.933,2.43-16.623,2.721-5.359.331-10.728-.011-16.083.158-7.975.249-16.155.6-24.046-.822-4.579-.825-10.414-1.316-14.263-4.206-2.419-1.816-1.06-4.287,1.464-5.378,3.6-1.55,8.566-1.293,12.437-1.688.595-.062,4.685-.365,4.761-1.14.228-2.315-6.618-3.593-8.067-3.8-4.918-.706-9.8-1.059-14.591-2.476-1.455-.43-3.5-.848-4.573-2.038-1.769-1.953-.328-4.253,1.365-5.707,3.1-2.656,7.7-3.228,11.636-3.566,4.836-.418,10.694,1.148,14.909-.675,16.945-7.329,18.081-17.628,27.393-23.252"/><path class="b" d="M123.2,95.024a7.307,7.307,0,0,1,.261-3.815,65.013,65.013,0,0,1,2-6.825v0c.64-1.173.245-.44.817-1.394v0c.567-.515.342-.407.975-.518l.008,0c.464.445.339.229.518.975a11.055,11.055,0,0,1-.714,3.927c-1.823,6.125-1.13,5.509-2.353,7.718-.265.469-.019.222-.959.96C123.142,95.1,123.239,95.3,123.2,95.024Z"/><path class="b" d="M128.89,93.692a5.4,5.4,0,0,1,2.061.821c-1.324,1.964-1.258,1.6-5.273,1.981a2.567,2.567,0,0,1-1.605-.184c-.276-.1-.021.066-1.1-.733.566-.765.655-1.062,1.646-1.444h0c.453-.117,3.036-.245,3.98-.4C128.623,93.728,128.874,93.692,128.89,93.692Z"/><path class="b" d="M115.234,83.985c1.5,18.264.658,28.224,6.329,31.063a12.859,12.859,0,0,0,4.422.944c1.071.092,1.366.042,1.838.541.5.723.266.284-.441,8.176-.095,1.274-.047,1.313-.384,1.769-.76.72-1.132.363-2.948-.107a47.457,47.457,0,0,0-17.068-1.071c-11.672,1.208-25.258,6.8-35.062,12.842l0,0-.495.088-.411-.261v0l0,0-.088-.476c.343-.536.171-.356.8-.806,1.712-1.191,3.324-2.331,5.7-3.754,14.05-8.431,32.106-13,47.54-8.882.066-1.054.531-5.471.545-5.615a12.183,12.183,0,0,1-5.949-1.685,8.6,8.6,0,0,1-2.483-2.4c-4.172-6.095-3.482-24.862-3.927-35.514-.067-1.57-.139-.994.127-1.781l.514-.281h.012C114.687,77.06,114.666,76.344,115.234,83.985Z"/><path class="b" d="M48.848,160.4l.007,0,.265.529c-.248.817.022.3-1.088,1.724a76.047,76.047,0,0,0-7.876,12.85,101.321,101.321,0,0,0-9.036,26.741c-1.323,6.451-2.041,13.4-.186,19.782,1.685,6.052,5.286,9.25,9,10.206a14.026,14.026,0,0,0,3.962.456c6.286-.265,12.235-3.24,17.275-7.093,13.032-10.221,30.936-32.219,33.377-44.442.36-1.728.067-1.065.484-1.8l.464-.142h.012l.422.242c.17.54.22.318-.046,2.049-2.463,16-25.959,43.554-40.246,50.5a32.784,32.784,0,0,1-9.645,3.013c-9.146,1.276-17-4.2-18.444-17.629-.628-6.172.218-11.289,1.4-16.858a89.9,89.9,0,0,1,5.585-18.381h0C40.662,167.8,47.383,161.017,47.748,160.5l.537-.269Z"/><path class="b" d="M58.793,169.074l0,0-.059.921A5.823,5.823,0,0,0,58,171.684c-.042.144-.817,3.2-1.265,5.14-.648,2.669-1,2.7-2.161,3.446a60.833,60.833,0,0,1-11.286,5.478l0,0-.617.023-.446-.318,0-.008-.045-.549c0-.006.34-.512.345-.518a26.442,26.442,0,0,1,3.565-2.372,66.388,66.388,0,0,0,7.781-4.237c.816-2.028.785-4.47,2.145-6.7a6.6,6.6,0,0,1,1.175-1.5c.689-.606.606-.522,1.2-.675Z"/><path class="b" d="M86.455,164.691c.3,1.1.364.634-.23,2.23a10.677,10.677,0,0,1-1.789,2.963,42.605,42.605,0,0,1-11.1,8.8c-.213.143-2.25.96-2.476,1.044l0,0-.618.031-.449-.311,0-.008-.054-.541.33-.526h0a34.472,34.472,0,0,1,4.763-3.477c6.366-4.364,6.854-5.853,9.4-8.486C85.9,164.627,85.292,165.041,86.455,164.691Z"/><path class="b" d="M89.936,174.406c-.489,1.847-.912,3.012-3.519,5.619a35.264,35.264,0,0,1-5.669,4.537v0c-.306.163-.277.168-.814.419l0,0a20.556,20.556,0,0,1-1.98.733c-.767,0-.513.088-1.067-.3l0,0-.031-.529c.543-.878.094-.256,1.182-1.294.153-.076.043-.088,1.37-1.109a29.912,29.912,0,0,0,4.56-3.523,27.344,27.344,0,0,0,2.906-3.228c1-1.092,1.251-1.252,1.838-1.866.142-.141-.043-.049.994-.376Z"/><path class="b" d="M92.654,179.107c-.3,2.357-.531,2.811-2.3,5.623a29.962,29.962,0,0,1-4.3,5.186h0a10.723,10.723,0,0,1-2.414,1.5c-.066,0,.218-.036-.626.1l-.472-.23-.007-.007-.108-.511.242-.583,0,0c.043-.072.408-.506,1.147-1.451v0a34.216,34.216,0,0,0,4.714-5.73c1.627-2.712,1.146-2.237,2.775-4.192.176-.232.034-.136,1.009-.572Z"/><path class="b" d="M159.131,83.118a8.083,8.083,0,0,1,5.389,1.646,6.567,6.567,0,0,1,1.735,2.326c1.61,3.76-.586,8.2-3.876,9.838.259,7.557,1.178,19.008,2.21,26.019,12.441-1.382,26.98-1.025,37.949,4.986a33.184,33.184,0,0,1,6.076,4.222,28.623,28.623,0,0,1,4.655,5.227,29.024,29.024,0,0,1,3.2,6.1c2.049,5.123,2.882,12.54,1.1,20.988-3.327,17.6-24.734,52.247-51.363,70.005-19.66,13.1-37.875,12.71-47.931,6.674-11.555-6.763-23.419-26.111-29.977-36.021v0l-.1-.492.265-.414,0,0h0l.483-.092c1.607,1.047,11.424,18.164,23.525,29.631.146.131.593.539.737.672h0c5.417,4.977,9.427,6.71,15.368,7.722,10.12,1.686,19.11-.607,28.249-5.078,24.462-12.5,47.859-43.11,56.065-65.4,5.179-13.688,4.744-28.767-6.656-38.271-7.835-6.528-18.562-8.41-28.806-8.628-12.727,0-13.63,1.246-14.723.388h0c-.384-.438-.353-.535-.484-1.6a262.1,262.1,0,0,1-1.876-27.224,1,1,0,0,1,.629-.952h0c2.681-.895,5.084-4.748,3.489-7.941a4.922,4.922,0,0,0-3.888-2.6c-3.137-.376-1.851.139-3.094-.349l-.242-.541v-.008l.215-.553C158.093,83.1,157.826,83.118,159.131,83.118Z"/><path class="b" d="M98.246,161.916c6,4.1,8.252,9.672,7.726,13.875a285.211,285.211,0,0,0,33.773,15.372c3.851-5.847,5.684-9.505,13.794-22.277,1.182-1.847.863-1.446,1.4-1.861l.488.046.007,0c.516.727.616.138-2.26,5.784-3.827,7.535-6.212,11.414-7.976,14.316-4.929,7.689-3.729,7.277-7.109,6.015-13.023-4.863-23.679-10.258-34.044-15.614-1.123-.721-.413-1.513-.5-3.078,0-5.511-4.995-10.644-10.025-13.307-.493-.232-.321-.11-.814-.63l0-.583,0-.008.419-.407.6-.011A22.115,22.115,0,0,1,98.246,161.916Z"/><path class="b" d="M138.578,191.313a13.582,13.582,0,0,1,2.3.825c3.549,2.13,7.344,3.943,7.749,4.268a9.974,9.974,0,0,1,.96.791c.811.808.52.34,1.055,1.562-1.176.273-.876.249-1.431.161a6.584,6.584,0,0,1-2.464-.744c-2.25-1.18-4.368-2.311-6.644-3.627a7.2,7.2,0,0,1-1.635-1.21c-.038-.035-.655-.638-.687-.679h0c-.374-.669-.321-.423-.273-1.071l0-.007C138.058,191.234,137.818,191.3,138.578,191.313Z"/><path class="b" d="M138.524,100.04a5.6,5.6,0,0,1-1.846,3.036v0c-1.823,1.666-4.311,3.175-6.955,2.844a4.052,4.052,0,0,1-3.216-2.187c-.12-.213-.091-.163-.1-.185v0c-.147-.747-.174-.5.077-1.1l.008-.008c.623-.154.373-.163,1.1.081a2.743,2.743,0,0,0,.242.153,5.188,5.188,0,0,0,1.025.461,3.785,3.785,0,0,0,2.418.273,6.5,6.5,0,0,0,2.168-.945h0a16.2,16.2,0,0,0,2.372-1.965l1.244-.9c.581-.407.122-.223,1.3-.487Z"/><ellipse cx="141.875" cy="85.002" rx="1.919" ry="2.687"/><ellipse cx="120.765" cy="86.154" rx="1.919" ry="2.687"/><path class="b" d="M142.75,79.118a2.889,2.889,0,0,0-.641-.245,3.114,3.114,0,0,0-1.9.142h0a3.521,3.521,0,0,0-.4.172h0a3.963,3.963,0,0,1-.445.223h0c-.42.1-.355.1-.714.173-.534.114.121.086-1.39.05.031-1.264-.023-1.036.119-1.3a2.486,2.486,0,0,1,1.332-1.359h0a6.091,6.091,0,0,1,.637-.276h0a5.547,5.547,0,0,1,4.318.126,1.7,1.7,0,0,1,.752.641,2.473,2.473,0,0,1,.43,1.9A12.966,12.966,0,0,1,142.75,79.118Z"/><path class="b" d="M164.248,85.1c-4.675-3.435-8.425,1.34-8.471,5.877-6.356-3.6-6.525-11.461-5.719-17.886-3.021-.978-5.42-3.2-7.519-5.5-8.152,7.567-20.995,8.028-31.281,7.838-10.974-.2-14.612-13.027-12.064-22,1.524-5.37,5.684-9.367,10.379-12.095,8.693-5.054,22.434-5.431,30.1,1.894,3.711,3.545,5.1,8.822,8.8,12.262C155.98,62.484,172.3,60.789,163.438,85"/><path class="b" d="M124.116,36.388a27.4,27.4,0,0,1,9.392,1.631A19.416,19.416,0,0,1,143.729,46.4c3.46,5.515,3.878,7.838,9.645,10.987,5.524,3,14.428,5.67,13.507,17.075a38.146,38.146,0,0,1-2.457,9.8c.348.24.244.136.595.725l-.134.576,0,.008-.507.3-.583-.134h0c-.284-.2-.1-.116-.576-.116-.411-.389-.354-.3-.364-.441a3.8,3.8,0,0,0-2.042-.388,4.641,4.641,0,0,0-3.42,3.106,8.263,8.263,0,0,0-.349,1.024c-.465,1.856-.056,2.067-.5,2.7-.742.743-1.443.158-2.4-.5h0c-3.227-2.328-4.656-5.49-5.308-9.4a30.439,30.439,0,0,1-.077-7.817,14.687,14.687,0,0,1-2.917-1.622,28.692,28.692,0,0,1-3.366-2.966c-8.559,6.937-20.056,7.528-31.227,7.354-11.289-.321-15.784-12.721-13.488-22.553C99.447,45.616,109.714,36.388,124.116,36.388ZM104.775,46.529A16.651,16.651,0,0,0,99.7,57.824c-.539,7.561,3,15.5,10.555,16.307a88.086,88.086,0,0,0,14.93-.554c5.108-.706,10.582-2.276,14.724-5.407,1.977-1.445,1.759-1.779,2.683-1.813.9.11.679.4,2.748,2.324,3.4,3.138,4.9,2.923,5.615,3.589h0c.465.61.3.852.2,1.86-.392,3.819-.538,8.275,1.178,11.709a10.13,10.13,0,0,0,2.652,3.378,9.611,9.611,0,0,1,1.474-3.474,5.44,5.44,0,0,1,5.577-2.556,6.017,6.017,0,0,1,1.19.384l0,0c.071-.143.7-2.267,1.036-3.574,3.806-16.265-6.141-16.866-13.94-21.574-5.57-3.507-6.3-7.489-9.707-12.216h0C133.115,35.919,114.4,36.82,104.775,46.529Z"/><path class="c" d="M151.421,61.312a14.617,14.617,0,0,1-1.363-2.77c-2.046-6.427-3.512-8.575-4.211-11.448-.2-.817-.18-.734-.184-.758l0,0,.039-.627.334-.412.007,0,.53,0c.646.466.41.234.983,1.006,1,1.385,1.292,1.9,3.132,6.569,2.017,5.329,1.979,5.692,2.1,7.234,0,1.391.187.778-.418,1.96C151.418,61.457,151.6,61.618,151.421,61.312Z"/><path class="b" d="M60.3,175.749c3.415-.184,12.495,1.347,15.481.092,3.432-1.447,9.488-7.841,10.394-11.622.649-2.706-1-7.657-1.393-10.371-.142-.967-1-9.25-1.6-9.837-2.429-2.384-21.4,1.4-25.414,2.153-.608.115-3.422.323-3.756.9-.976,1.678,1.09,7.02,1.605,8.594,2.175,6.652,3.214,13.687,5.162,20.419"/><path class="b" d="M82.755,142.4c1.691.622,1.875.971,2.533,5.581,1.023,7.023.135,3.153,1.524,9.538.907,4.265,1.289,6.307-.5,9.553-2.082,3.676-6.222,7.84-9.089,9.384a7.416,7.416,0,0,1-3.849.979,53.577,53.577,0,0,1-6.971-.4c-5.337-.577-4.98-.459-5.244-.495-.007,0-.194.159-.2.165l-.486-.062-.1-.115H60.33l-.561-.215-.257-.526v-.011c.235-.632.15-.523.291-.591-1.707-5.476-2.4-8.938-3.957-14.509-1.8-6.3-4.083-11.175-3.111-13.806.357-1.008,1.109-1.276,2.18-1.527,1.122-.21,2.565-.387,2.605-.4.711-.156,7.2-1.371,11.544-2.011C72.247,142.472,79.7,141.432,82.755,142.4Zm-7.408,32.337c3.338-1.671,8.549-7.212,9.577-10.632.619-2.783-.972-7.159-1.348-9.937-.128-.768-.863-7.8-1.374-9.331-1.543-.926-12.16.338-12.52.518-3.77.5-11.764,2.05-12.08,2.084a19.17,19.17,0,0,0-2.577.438h0c-.267,1.532,1.006,5.171,1.5,6.625,2.145,6.128,3.087,13.785,4.639,20.423C66.535,174.924,72.581,175.769,75.347,174.736Z"/><path class="c" d="M79.8,165.451c-1.237-2.88-.927-2.822-2.511-11.284-.905-4.871-.753-3.788-.9-5.853-.047-1.69-.1-1.188.127-1.969l.43-.327h.008l.525.127c.482.574.365.395.515.768.36.931.405,1.021.737,2.03.219.22,2.38,12.36,2.51,13.2a16.641,16.641,0,0,1,.1,3.013c-.02.783.084.443-.511,1.517C79.884,165.892,80.1,166.171,79.8,165.451Z"/><ellipse class="d" cx="71.067" cy="153.801" rx="2.47" ry="3.187" transform="translate(-28.437 16.672) rotate(-11.165)"/><path class="b" d="M232.341,182.316c3.457.023,52.656.5,55.355,1.689l.2.441v.008c-.409.879.111.517-5.378.871-14.474.369-30.589-.529-49.608-.529-6.363-.043-3.769.1-15.388-.135-4.015-.081-3.2.039-3.98-.284l-.249-.526v-.007l.214-.541.542-.265C215.443,183.038,219.5,182.316,232.341,182.316Z"/><path class="b" d="M12.072,169.877c19.629.166,17.393-.131,21.782.518,2.239.435,1.615.213,2.353.6l.194.419v.008l-.227.4c-.543.228-.207.209-2.38.418-4.527.377-2.239.153-10.037.153-6.648-.031-13.1.017-13.528-.145-3.969-.4-3.681-.469-4.18-.73l-.217-.514V171l.243-.5.557-.257C6.823,170.237,10.345,169.846,12.072,169.877Z"/><path class="b" d="M224.254,198.337c4.951,0,4.988.005,7.466.648.387.108.173-.036.978.76-.9.752-.331.6-3.082,1.014a21.316,21.316,0,0,1-2.936.065c-8.086-.107-12.047.351-14.105-.8l-.223-.491v-.007l.238-.484a2.1,2.1,0,0,1,1.148-.376C216.377,198.219,216.516,198.337,224.254,198.337Z"/><path class="b" d="M273.587,199.68c8.62,0,8.792.147,11.741.733.654.309.486.154.771.657v.007c-.294.493-.121.342-.787.637-.186,0-.349.1-2.149.346-2.567.33-1.605.1-10.286.1-5.937,0-5.733.258-9.181-.039-1.306-.112-.941-.031-1.643-.33l-.265-.479V201.3l.192-.514.53-.319c.149,0,.706-.218,2.851-.541C265.361,199.727,271.926,199.68,273.587,199.68Z"/><path class="b" d="M7.754,183.061c.516,0,3.2.3,3.348.315,4.618.478,4.729.423,5.889.94.9.426.57.192,1.43,1.063-1.013.686-.646.523-1.614.764-1.4.291-1.228.186-7.812-.5a6.382,6.382,0,0,1-1.838-.261c-1.8-.574-1.308-.507-1.448-.507-.623-.456-.47-.258-.709-.848v-.008c.34-.536.154-.37.847-.706A14.151,14.151,0,0,1,7.754,183.061Z"/><path class="b" d="M150.465,111.29l0,.008c.033.569.087.361-.269.9h0a20.016,20.016,0,0,1-2.625,1.919c-.291.165-.317.184-.7.407h0c-4.616,2.357-14.092,4.582-19.855,3.585-1.752-.337-1.439-.227-2.1-.634l-.184-.522v-.007c.471-.836,0-.621,4.483-.979.426-.04,1.334-.058,2.487-.131a41.279,41.279,0,0,0,10.041-1.938c3.122-1.041,2.274-.877,4.145-1.554l0,0c.207-.072,3.283-1.128,3.661-1.271C150.209,111.071,149.9,110.92,150.465,111.29Z"/><path class="b" d="M253.789,112.346a24.324,24.324,0,0,0-1.508-2.353c-3.969-5.6-10.434-9.2-16.646-6.222a17.851,17.851,0,0,0-5.458,4.264,16.192,16.192,0,0,0-3.62,10.555,36.1,36.1,0,0,0,.891,7.251c2.184-1.009,10.626-6.1,11.173-6.283.008-.141.171-5.9.43-5.9a1.159,1.159,0,0,1,.744-.621c2.462-.587,4.021-.917,7.105-1.578,3.906-.837,2.895-.772,3.8-.637l.365.453,0,.008-.077.579-.464.384h0c-1.108.358-1.328.422-2.852.887-7.088,2.134-6.465,1.753-6.479,2.057-.225,5.4.247,5.659-.986,6.321-3.921,2.107-8.105,4.777-12.643,7.047-.651.32-.932.492-1.6.173-.551-.384-.563-.451-1.086-3.067-1.8-8.77-.79-16.32,6.256-21.958,8.533-6.766,17.867-3.217,23.01,6.383.943,1.823.8,1.653.825,2.172,0,.007-.305.37-.311.376C254.028,112.637,254.347,112.8,253.789,112.346Z"/><path class="b" d="M278.12,110.53c3.326.832,3.14.693,3.393,2.553.94,7.935-.367,14.5-2.645,19.056v0a26.9,26.9,0,0,1-5.2,7.439c-7.267,7.267-20.151,7.671-28.068,1.12-6.837-5.657-7.055-14-6.671-22.672.095-2.153,0-1.624.33-2.353l.541-.222h.008c1.109.491.574-.323,1.021,8.152a30.534,30.534,0,0,0,1.562,8.183,17.132,17.132,0,0,0,2.073,4.057c5.541,7.878,17.691,9.15,25.447,3.689,4.038-2.95,7.047-7.994,8.352-12.843a33.89,33.89,0,0,0,.79-13.365,77.381,77.381,0,0,0-21.551-2.479c-1.377.029-.939.1-1.589-.135-.009-.016-.221-.419-.227-.437l.162-.457.445-.234,0,0C263.627,108.817,270.822,108.743,278.12,110.53Z"/><path class="b" d="M276.07,113.409l.311.345c0,.012-.071.457-.073.469l-.395.353a35.427,35.427,0,0,1-5.5,1.938,79.747,79.747,0,0,1-13.38,1.455c-9.872.286-12.336-.635-14.4-.929l0,0-.525-.311-.188-.53v-.007l.276-.5.568-.219s3.435-.073,4.659-.073c2.464,0,5.991.307,11.745,0a84.735,84.735,0,0,0,11.024-1.324c.724-.121,3.954-.524,5.346-.753C275.6,113.328,275.358,113.3,276.07,113.409Z"/><path class="a" d="M275.21,124.874c-3.3-.488-6.183,1.934-9.449,2.065-3.578.142-6.951-1.079-10.49-1.267-3.439-.184-6.913.464-10.344.641.683,2.821,1.923,6.08,4.076,8.129,9.066,8.621,24.3,2.867,25.543-9.568"/><path class="b" d="M259.558,143.7l.315.53.011.038a28.781,28.781,0,0,1,.81,7.247c.487,15.55-.741,15.213-.741,16.2-.327.585-.167.439-.683.675h-.008l-.391-.23-.215-.514,0,0c-.795-6.3-.058-4.174-.445-16.412a37.6,37.6,0,0,1,.1-6.855c0-.013,0-.032,0-.043l.241-.568.492-.264Z"/><path class="b" d="M264.033,143.942l.215.56c0,7.227.519,14.292,1.252,21.936.312,0,.908-.024,1.85.011,3.9.145,9.822,1.165,11.99,4.414,1.968,3.2-1.607,6.21-5.3,6.778a63.611,63.611,0,0,1-6.509.584,124.345,124.345,0,0,1-16.835-.576,14.849,14.849,0,0,1-4.436-1.094c-3.532-1.675-3.9-4.96-.123-7.055h0c3.4-1.89,7.179-1.635,11-2a1.385,1.385,0,0,1,.967.073l.265.4v.011l-.119.468c-.446.3-.148.273-2.41.641-3.295.525-5.12.68-7.558,1.762a5.477,5.477,0,0,0-2.383,1.977l0,.015-.008.012,0,.015v0a.411.411,0,0,0-.015.042v.012l0,.007v.008l0,.011v.016l0,.007v.035l0,0v.015h0v.012l0,0v0l0,0v0l0,0v.008a.532.532,0,0,1,.027.049c.116.465.938,1.074,2.207,1.5,3.789,1.266,21.489,1.661,26.1.449a7.325,7.325,0,0,0,1.678-.667,3.561,3.561,0,0,0,1.374-1.2l.007-.019.012-.015c.009-.019,0,0,.061-.127l0-.015.008-.012,0-.015.007-.016c.007-.026.027-.092.035-.122v-.012l.008-.027v-.023l0-.011v-.016l0-.011v-.119l0-.012v-.023l0-.015v-.012l0-.011v-.016a.877.877,0,0,0-.112-.287l-.007-.02c-.939-1.247-2.228-1.757-3.908-2.368a22.858,22.858,0,0,0-5.73-.948c-3.423-.137-3.228.248-3.992-.207-.559-.479-.492-.343-.875-4.89a116.1,116.1,0,0,1-.449-13.169C262.546,143.869,262.556,143.219,264.033,143.942Z"/><path class="c" d="M248.27,121.12a22,22,0,0,1,.522,2.157,21.905,21.905,0,0,0,.311,2.483,15.1,15.1,0,0,0,1.785,4.813c.036.111.065.177.111.288.021.052.416,1.186.453,1.278.1.269.08.028.03,1.14-1.082-.106-.876-.053-1.132-.207a4.874,4.874,0,0,1-2.134-2.257v0c-.143-.274-.229-.444-.449-.944h0a15.6,15.6,0,0,1-.695-1.946,22.4,22.4,0,0,1-.752-4.475,9.689,9.689,0,0,1,.38-2.322c.392-.664.209-.493.779-.783h.008C248.062,120.631,247.878,120.461,248.27,121.12Z"/><path class="b" d="M241.58,105.567a8.951,8.951,0,0,1,4.69,1.447c.6.384.387.193.81.714l.015.453,0,0c-1.171.431-.5.347-2.161.081a23.987,23.987,0,0,0-4.433-.173,9.22,9.22,0,0,0-7.78,6.064,19.947,19.947,0,0,0-1,5.42l-.212.583c-.011.007-.46.286-.472.292l-.529-.169-.342-.51,0,0a14.406,14.406,0,0,1-.322-1.578,10.073,10.073,0,0,1,1.182-6.3A11.724,11.724,0,0,1,241.58,105.567Z"/><path class="b" d="M235.017,113.044c.874.754,1.117.866,1.258,1.175h0c.056.2.034.124.1.322v.012l.07.384c-.9,1.217-.705,1.041-.972,1.067a2.512,2.512,0,0,1-.568,0l0,0c-.338-.072-.18.024-1.486-1.063-.094-.142-1.289-1-1.289-1.221a4.7,4.7,0,0,1-.3-1.765C233.841,111.779,233.527,111.764,235.017,113.044Z"/><path class="b" d="M242.367,107.9h0c.148.2.054.042.184,1.232.073.822.1.611.05.779l0,0-.058.092h0a2.77,2.77,0,0,1-.418.411c-1.474.224-1.221.284-1.808-.108v0l-.084-.081v0l-.054-.08c0-.2-.225-1.761-.161-1.985l.046-.084v0a2.522,2.522,0,0,1,.338-.384l.007,0,1.566-.115C242.115,107.711,242,107.544,242.367,107.9Z"/><path class="b" d="M293.545,91.458c1.024.238.81.17,1.317.5l.138.449v.008c-.483.747.4.5-7.6.5a23.02,23.02,0,0,0-5.389.391,9.888,9.888,0,0,0-2.591.937h0a7.337,7.337,0,0,0-2.026,1.62c-2.848,3.2-3.466,9.453-4.518,14.616-.809,3.9-.676,3.289-1.063,3.888l-.545.161h-.008l-.487-.3c-.235-.722-.222-.211-.108-2.353a44.442,44.442,0,0,1,.848-7.492c.324-.646.929-9.2,6.725-12.32C278.5,92.065,282.791,88.819,293.545,91.458Z"/><path class="c" d="M118.379,41.2c.475.053.335.027.911.344l.2.529v.008l-.256.5-.566.235,0,.005h-.05l-.017,0a14.89,14.89,0,0,0-4.629,1.024h-.008a15.2,15.2,0,0,0-3.273,1.678,14.785,14.785,0,0,0-4.39,4.868,15.961,15.961,0,0,0-1.993,6.089,19.552,19.552,0,0,0,1.221,8.507c.565,1.409.418.671.533,1.544l-.239.394,0,0c-.007,0-.455.075-.462.076l-.44-.256,0,0a12.3,12.3,0,0,1-3.071-6.727C100.808,48.716,109.971,39.807,118.379,41.2Z"/></svg>